<svg width="24" height="24" viewBox="0 0 24 24" fill="none" xmlns="http://www.w3.org/2000/svg">
<path d="M29.7394 4.79536L27.5636 4.42623C27.3369 3.69446 27.0455 2.9886 26.6893 2.31511L27.9715 0.521308C28.5155 -0.24284 28.4313 -1.28545 27.7643 -1.94598L25.8345 -3.87578C25.4719 -4.23843 24.9926 -4.43918 24.4811 -4.43918C24.0796 -4.43918 23.6975 -4.31614 23.3737 -4.08301L21.5734 -2.80079C20.874 -3.16992 20.1422 -3.47428 19.3846 -3.70093L19.0219 -5.85091C18.8665 -6.77695 18.07 -7.45044 17.131 -7.45044H14.4047C13.4657 -7.45044 12.6691 -6.77695 12.5137 -5.85091L12.1381 -3.64913C11.4128 -3.42247 10.707 -3.12458 10.0335 -2.76194L8.25262 -4.04415C7.92883 -4.27728 7.54028 -4.40032 7.13878 -4.40032C6.62719 -4.40032 6.1415 -4.19957 5.78533 -3.83693L3.84905 -1.90713C3.18852 -1.24659 3.09786 -0.203985 3.64183 0.560163L4.93699 2.37987C4.58082 3.05983 4.29589 3.7657 4.07571 4.49747L1.92573 4.86011C0.999689 5.01553 0.326202 5.81206 0.326202 6.75106V9.47738C0.326202 10.4164 0.999689 11.2129 1.92573 11.3683L4.12752 11.7439C4.35417 12.4692 4.65206 13.1751 5.0147 13.8486L3.73897 15.6229C3.195 16.3871 3.27918 17.4297 3.94619 18.0902L5.87599 20.02C6.23864 20.3827 6.71785 20.5834 7.22944 20.5834C7.63094 20.5834 8.01301 20.4604 8.33681 20.2273L10.1565 18.9321C10.8106 19.2753 11.497 19.5538 12.2029 19.774L12.5655 21.9498C12.7209 22.8759 13.5175 23.5494 14.4565 23.5494H17.1893C18.1283 23.5494 18.9248 22.8759 19.0802 21.9498L19.4493 19.774C20.1811 19.5473 20.887 19.2559 21.5605 18.8997L23.3543 20.1819C23.6781 20.4151 24.0666 20.5381 24.4681 20.5381C24.9797 20.5381 25.4589 20.3374 25.8216 19.9747L27.7513 18.0449C28.4119 17.3844 28.5025 16.3418 27.9586 15.5776L26.6764 13.7773C27.0325 13.0974 27.3304 12.3915 27.5506 11.6662L29.7265 11.3036C30.6525 11.1481 31.326 10.3516 31.326 9.41262V6.6863C31.339 5.7473 30.6655 4.95078 29.7394 4.79536ZM29.5905 9.41262C29.5905 9.49681 29.5322 9.56804 29.448 9.581L26.7282 10.0343C26.3849 10.0926 26.113 10.3451 26.0288 10.6754C25.7827 11.6274 25.4071 12.5404 24.902 13.3888C24.7271 13.6867 24.7401 14.0558 24.9408 14.3407L26.5404 16.5943C26.5857 16.6591 26.5792 16.7562 26.5209 16.8145L24.5911 18.7443C24.5458 18.7896 24.5005 18.7961 24.4681 18.7961C24.4292 18.7961 24.3969 18.7831 24.371 18.7637L22.1239 17.1642C21.8454 16.9634 21.4698 16.9505 21.1719 17.1253C20.3236 17.6305 19.4105 18.0061 18.4585 18.2521C18.1218 18.3363 17.8692 18.6148 17.8174 18.9515L17.3576 21.6714C17.3447 21.7556 17.2735 21.8138 17.1893 21.8138H14.4629C14.3788 21.8138 14.3075 21.7556 14.2946 21.6714L13.8413 18.9515C13.783 18.6083 13.5304 18.3363 13.2002 18.2521C12.2741 18.0125 11.3804 17.6434 10.5451 17.1642C10.4091 17.0865 10.2537 17.0476 10.1047 17.0476C9.92986 17.0476 9.74854 17.0994 9.59959 17.2095L7.33305 18.822C7.30067 18.8414 7.26829 18.8544 7.23591 18.8544C7.21001 18.8544 7.15821 18.8479 7.11287 18.8026L5.18308 16.8728C5.12479 16.8145 5.11832 16.7238 5.16365 16.6526L6.7567 14.4184C6.95745 14.1335 6.97041 13.7579 6.79556 13.46C6.29044 12.6182 5.90189 11.7051 5.65581 10.7531C5.56515 10.4229 5.29317 10.1703 4.95642 10.112L2.21715 9.64575C2.13296 9.6328 2.07468 9.56157 2.07468 9.47738V6.75106C2.07468 6.66687 2.13296 6.59564 2.21715 6.58269L4.91757 6.12938C5.26079 6.0711 5.53925 5.81854 5.62343 5.48179C5.86304 4.52985 6.23216 3.61028 6.7308 2.76195C6.90565 2.46406 6.88622 2.09493 6.68547 1.81647L5.07299 -0.450067C5.02766 -0.514825 5.03413 -0.611962 5.09241 -0.670245L7.02221 -2.60004C7.06754 -2.64537 7.11287 -2.65185 7.14525 -2.65185C7.18411 -2.65185 7.21649 -2.6389 7.24239 -2.61947L9.47655 -1.02642C9.76149 -0.825665 10.1371 -0.812713 10.435 -0.98756C11.2768 -1.49267 12.1899 -1.88123 13.1419 -2.12731C13.4721 -2.21797 13.7247 -2.48995 13.783 -2.8267L14.2492 -5.56597C14.2622 -5.65016 14.3334 -5.70844 14.4176 -5.70844H17.1439C17.2281 -5.70844 17.2994 -5.65016 17.3123 -5.56597L17.7656 -2.86555C17.8239 -2.52233 18.0765 -2.24387 18.4132 -2.15969C19.3911 -1.9136 20.3236 -1.53153 21.1913 -1.01994C21.4892 -0.845092 21.8583 -0.858044 22.1433 -1.05879L24.3774 -2.6648C24.4098 -2.68423 24.4422 -2.69718 24.4746 -2.69718C24.5005 -2.69718 24.5523 -2.6907 24.5976 -2.64537L26.5274 -0.715575C26.5857 -0.657293 26.5922 -0.566631 26.5468 -0.495397L24.9473 1.75172C24.7466 2.03018 24.7336 2.40577 24.9085 2.70366C25.4136 3.552 25.7892 4.46509 26.0353 5.41704C26.1194 5.75378 26.3979 6.00634 26.7346 6.05814L29.4545 6.51793C29.5387 6.53088 29.597 6.60211 29.597 6.6863V9.41262H29.5905Z" fill="#5191FA"/>
<path d="M15.8293 1.35571C12.1381 1.35571 9.13982 4.35402 9.13982 8.04525C9.13982 11.7365 12.1381 14.7348 15.8293 14.7348C19.5206 14.7348 22.5189 11.7365 22.5189 8.04525C22.5189 4.35402 19.5206 1.35571 15.8293 1.35571ZM15.8293 12.9863C13.103 12.9863 10.8883 10.7716 10.8883 8.04525C10.8883 5.31892 13.103 3.10419 15.8293 3.10419C18.5557 3.10419 20.7704 5.31892 20.7704 8.04525C20.7704 10.7716 18.5557 12.9863 15.8293 12.9863Z" fill="#5191FA" fill-opacity="0.4"/>
</svg>
