<?xml version="1.0" encoding="UTF-8"?>
<svg width="66px" height="66px" viewBox="0 0 66 66" version="1.1" xmlns="http://www.w3.org/2000/svg" xmlns:xlink="http://www.w3.org/1999/xlink">
    <!-- Generator: Sketch 53.2 (72643) - https://sketchapp.com -->
    <title>swimming-pool</title>
    <desc>Created with Sketch.</desc>
    <g id="Page-1" stroke="none" stroke-width="1" fill="none" fill-rule="evenodd">
        <g id="01_Home" transform="translate(-396.000000, -2672.000000)" fill="#1A2B48" fill-rule="nonzero" stroke="#FFFFFF" stroke-width="0.3">
            <g id="services" transform="translate(135.000000, 2321.000000)">
                <g id="spa" transform="translate(0.000000, 292.000000)">
                    <g id="swimming-pool" transform="translate(262.000000, 60.000000)">
                        <path d="M0.905625,39.534875 C2.676125,39.534875 3.531,40.5945 4.6135,41.936 C5.785375,43.3885 7.113625,45.034875 9.7805,45.034875 C12.447375,45.034875 13.775625,43.388625 14.9475,41.936 C16.029875,40.5945 16.88475,39.534875 18.65525,39.534875 C20.425625,39.534875 21.2805,40.5945 22.36275,41.936 C23.534625,43.3885 24.86275,45.034875 27.529625,45.034875 C30.1965,45.034875 31.52475,43.388625 32.696625,41.936 C33.779,40.5945 34.634,39.534875 36.4045,39.534875 C38.175125,39.534875 39.03,40.5945 40.1125,41.936 C41.284375,43.3885 42.612625,45.034875 45.279625,45.034875 C47.94675,45.034875 49.275,43.388625 50.447,41.936 C51.5295,40.5945 52.3845,39.534875 54.155125,39.534875 C55.92575,39.534875 56.78075,40.5945 57.86325,41.936 C59.035125,43.3885 60.3635,45.034875 63.030625,45.034875 C64.237125,45.034875 64.239125,43.159875 63.030625,43.159875 C61.259875,43.159875 60.405,42.10025 59.3225,40.75875 C58.150625,39.30625 56.82225,37.659875 54.155125,37.659875 C51.488,37.659875 50.15975,39.306125 48.98775,40.758625 C48.569875,41.276625 48.1855,41.7515 47.769625,42.140625 L47.769625,6.67125 C47.769625,3.055125 44.740625,0.026375 41.12475,0.026375 C37.508875,0.026375 34.479875,3.055 34.479875,6.67125 L34.479875,10.47175 C34.479875,11.67825 36.354875,11.68025 36.354875,10.47175 L36.354875,6.67125 C36.354875,4.075375 38.529,1.901375 41.12475,1.901375 C43.720625,1.901375 45.894625,4.075 45.894625,6.67125 L45.894625,15.93925 L19.666625,15.93925 L19.666625,6.87625 C19.666625,3.380625 16.8995,0.36225 13.414875,0.065375 C9.420875,-0.274875 5.81475,2.794875 5.81475,6.876 L5.81475,10.47175 C5.81475,11.67825 7.68975,11.68025 7.68975,10.47175 L7.68975,6.876 C7.68975,4.000625 10.15975,1.798125 12.98375,1.920125 C15.6225,2.034125 17.791625,4.208375 17.791625,6.87625 L17.791625,37.722625 C15.687375,38.034875 14.526,39.47225 13.48825,40.758625 C12.405875,42.100125 11.551,43.15975 9.7805,43.15975 C8.01,43.15975 7.155125,42.100125 6.072625,40.758625 C4.90075,39.306125 3.5725,37.65975 0.905625,37.65975 C-0.300875,37.659875 -0.302875,39.534875 0.905625,39.534875 Z M45.279625,43.159875 C43.509,43.159875 42.654125,42.10025 41.57175,40.75875 C40.399875,39.30625 39.071625,37.659875 36.404625,37.659875 C33.73775,37.659875 32.4095,39.306125 31.237625,40.75875 C30.15525,42.10025 29.30025,43.159875 27.52975,43.159875 C25.759375,43.159875 24.9045,42.10025 23.82225,40.75875 C22.809,39.502875 21.678125,38.102875 19.66675,37.74675 L19.66675,33.55475 L45.89475,33.55475 L45.89475,43.11275 C45.702,43.143375 45.497875,43.159875 45.279625,43.159875 Z M45.894625,17.81425 L45.894625,20.151625 C45.843125,20.151625 25.218125,20.158375 25.150125,20.158375 C23.946625,20.158375 23.9575,22.030375 25.16525,22.030375 C25.218,22.030375 45.843,22.026625 45.8945,22.026625 L45.8945,27.46775 C45.8945,27.46775 44.43125,27.474875 43.769,27.46775 C42.570375,27.446375 42.468,29.34275 43.749125,29.34275 C44.17025,29.34275 45.8945,29.34275 45.8945,29.34275 L45.894625,31.67975 L19.6665,31.67975 L19.666625,29.339375 C19.666625,29.339375 36.043125,29.343 39.455375,29.3385 C40.658875,29.337 40.660625,27.4635 39.452875,27.4635 C32.916375,27.471875 19.6665,27.4645 19.6665,27.4645 L19.6665,22.030375 C19.6665,22.030375 20.674375,22.030375 21.12075,22.030375 C22.343,22.030375 22.468,20.158375 21.27,20.158375 C20.775625,20.158375 20.222125,20.147625 19.6665,20.158375 L19.6665,17.81425 L45.894625,17.81425 L45.894625,17.81425 Z" id="Shape"></path>
                        <path d="M63.030625,52.597375 C61.259875,52.597375 60.405,51.53775 59.3225,50.19625 C58.150625,48.74375 56.82225,47.097375 54.155125,47.097375 C51.488,47.097375 50.15975,48.743625 48.98775,50.196125 C47.90525,51.53775 47.05025,52.597375 45.2795,52.597375 C43.508875,52.597375 42.654,51.53775 41.571625,50.19625 C40.39975,48.74375 39.0715,47.097375 36.4045,47.097375 C33.737625,47.097375 32.409375,48.743625 31.2375,50.19625 C30.155125,51.53775 29.300125,52.597375 27.529625,52.597375 C25.75925,52.597375 24.904375,51.53775 23.822125,50.19625 C22.65025,48.74375 21.322125,47.097375 18.65525,47.097375 C15.988375,47.097375 14.660125,48.743625 13.48825,50.19625 C12.405875,51.53775 11.551,52.597375 9.7805,52.597375 C8.01,52.597375 7.155125,51.53775 6.072625,50.19625 C4.90075,48.74375 3.5725,47.097375 0.905625,47.097375 C-0.300875,47.097375 -0.302875,48.972375 0.905625,48.972375 C2.676125,48.972375 3.531,50.032 4.6135,51.3735 C5.785375,52.826 7.113625,54.472375 9.7805,54.472375 C12.447375,54.472375 13.775625,52.826125 14.9475,51.3735 C16.029875,50.032 16.88475,48.972375 18.65525,48.972375 C20.425625,48.972375 21.2805,50.032 22.36275,51.3735 C23.534625,52.826 24.86275,54.472375 27.529625,54.472375 C30.1965,54.472375 31.52475,52.826125 32.696625,51.3735 C33.779,50.032 34.634,48.972375 36.4045,48.972375 C38.175125,48.972375 39.03,50.032 40.1125,51.3735 C41.284375,52.826 42.612625,54.472375 45.279625,54.472375 C47.94675,54.472375 49.275,52.826125 50.447,51.3735 C51.5295,50.032 52.3845,48.972375 54.155125,48.972375 C55.92575,48.972375 56.78075,50.032 57.86325,51.3735 C59.035125,52.826 60.3635,54.472375 63.030625,54.472375 C64.237125,54.472375 64.239125,52.597375 63.030625,52.597375 Z" id="Path"></path>
                        <path d="M63.030625,62.034875 C61.259875,62.034875 60.405,60.97525 59.3225,59.63375 C58.150625,58.18125 56.82225,56.534875 54.155125,56.534875 C51.488,56.534875 50.15975,58.181125 48.98775,59.633625 C47.90525,60.97525 47.05025,62.034875 45.2795,62.034875 C43.508875,62.034875 42.654,60.97525 41.571625,59.63375 C40.39975,58.18125 39.0715,56.534875 36.4045,56.534875 C33.737625,56.534875 32.409375,58.181125 31.2375,59.63375 C30.155125,60.97525 29.300125,62.034875 27.529625,62.034875 C25.75925,62.034875 24.904375,60.97525 23.822125,59.63375 C22.65025,58.18125 21.322125,56.534875 18.65525,56.534875 C15.988375,56.534875 14.660125,58.181125 13.48825,59.63375 C12.405875,60.97525 11.551,62.034875 9.7805,62.034875 C8.01,62.034875 7.155125,60.97525 6.072625,59.63375 C4.90075,58.18125 3.5725,56.534875 0.905625,56.534875 C-0.300875,56.534875 -0.302875,58.409875 0.905625,58.409875 C2.676125,58.409875 3.531,59.4695 4.6135,60.811 C5.785375,62.2635 7.113625,63.909875 9.7805,63.909875 C12.447375,63.909875 13.775625,62.263625 14.9475,60.811 C16.029875,59.4695 16.88475,58.409875 18.65525,58.409875 C20.425625,58.409875 21.2805,59.4695 22.36275,60.811 C23.534625,62.2635 24.86275,63.909875 27.529625,63.909875 C30.1965,63.909875 31.52475,62.263625 32.696625,60.811 C33.779,59.4695 34.634,58.409875 36.4045,58.409875 C38.175125,58.409875 39.03,59.4695 40.1125,60.811 C41.284375,62.2635 42.612625,63.909875 45.279625,63.909875 C47.94675,63.909875 49.275,62.263625 50.447,60.811 C51.5295,59.4695 52.3845,58.409875 54.155125,58.409875 C55.92575,58.409875 56.78075,59.4695 57.86325,60.811 C59.035125,62.2635 60.3635,63.909875 63.030625,63.909875 C64.237125,63.909875 64.239125,62.034875 63.030625,62.034875 Z" id="Path"></path>
                    </g>
                </g>
            </g>
        </g>
    </g>
</svg>