<?xml version="1.0" encoding="UTF-8"?>
<svg width="122px" height="44px" viewBox="0 0 122 44" version="1.1" xmlns="http://www.w3.org/2000/svg" xmlns:xlink="http://www.w3.org/1999/xlink">
    <!-- Generator: Sketch 53.2 (72643) - https://sketchapp.com -->
    <title>logo_black</title>
    <desc>Created with Sketch.</desc>
    <g id="Symbols" stroke="none" stroke-width="1" fill="none" fill-rule="evenodd">
        <g id="footer" transform="translate(-135.000000, -76.000000)" fill="#1A2B48" fill-rule="nonzero">
            <g id="logo_black">
                <g transform="translate(135.000000, 76.000000)">
                    <path d="M10.078125,1.0625 C9.30728781,1.09375016 8.74739758,1.17708266 8.3984375,1.3125 C8.04947742,1.44791734 7.80989648,1.69791484 7.6796875,2.0625 C7.54947852,2.42708516 7.484375,3.01041266 7.484375,3.8125 L7.484375,20.0625 C7.484375,20.7500034 7.53385367,21.2473943 7.6328125,21.5546875 C7.73177133,21.8619807 7.91926945,22.070312 8.1953125,22.1796875 C8.47135555,22.289063 8.90624703,22.34375 9.5,22.34375 L11.0625,22.34375 C12.0312548,22.34375 12.9192668,22.046878 13.7265625,21.453125 C14.5338582,20.859372 15.2109348,20.0234429 15.7578125,18.9453125 C16.3046902,17.8671821 16.6822906,16.6197988 16.890625,15.203125 L17.625,15.203125 C17.5624997,15.9322953 17.53125,16.8697859 17.53125,18.015625 C17.53125,20.0677186 17.6041659,21.7552017 17.75,23.078125 C16.3020761,23.0156247 13.8593922,22.984375 10.421875,22.984375 C5.77601844,22.984375 2.30209484,23.0156247 0,23.078125 L0,22.4375 C0.708336875,22.4062498 1.22395672,22.3229173 1.546875,22.1875 C1.86979328,22.0520827 2.09114523,21.8020852 2.2109375,21.4375 C2.33072977,21.0729148 2.390625,20.4895873 2.390625,19.6875 L2.390625,3.8125 C2.390625,3.01041266 2.33072977,2.42708516 2.2109375,2.0625 C2.09114523,1.69791484 1.86979328,1.44791734 1.546875,1.3125 C1.22395672,1.17708266 0.708336875,1.09375016 0,1.0625 L0,0.421875 C1.07292203,0.484375312 2.75519687,0.515625 5.046875,0.515625 C7.2135525,0.515625 8.89061906,0.484375312 10.078125,0.421875 L10.078125,1.0625 Z M39.921875,1.0625 C39.2239548,1.15625047 38.7109391,1.33593617 38.3828125,1.6015625 C38.0546859,1.86718883 37.8307298,2.27343477 37.7109375,2.8203125 C37.5911452,3.36719023 37.53125,4.18749453 37.53125,5.28125 L37.53125,13.765625 C37.53125,16.8177236 37.0937544,19.0781177 36.21875,20.546875 C35.6354137,21.4947964 34.8020887,22.2291641 33.71875,22.75 C32.6354113,23.2708359 31.3020913,23.53125 29.71875,23.53125 C27.2604044,23.53125 25.3385486,22.994797 23.953125,21.921875 C23.2760383,21.3802056 22.7578143,20.7500036 22.3984375,20.03125 C22.0390607,19.3124964 21.7942715,18.471359 21.6640625,17.5078125 C21.5338535,16.544266 21.46875,15.3281323 21.46875,13.859375 L21.46875,3.8125 C21.46875,3.01041266 21.4088548,2.42708516 21.2890625,2.0625 C21.1692702,1.69791484 20.9453141,1.44791734 20.6171875,1.3125 C20.2890609,1.17708266 19.7708369,1.09375016 19.0625,1.0625 L19.0625,0.421875 C20.1562555,0.484375312 21.8176972,0.515625 24.046875,0.515625 C26.2552194,0.515625 27.9531191,0.484375312 29.140625,0.421875 L29.140625,1.0625 C28.3697878,1.09375016 27.8098976,1.17708266 27.4609375,1.3125 C27.1119774,1.44791734 26.8723965,1.69791484 26.7421875,2.0625 C26.6119785,2.42708516 26.546875,3.01041266 26.546875,3.8125 L26.546875,15.875 C26.546875,17.3750075 26.6822903,18.5963495 26.953125,19.5390625 C27.2239597,20.4817755 27.6796843,21.1953101 28.3203125,21.6796875 C28.9609407,22.1640649 29.8437444,22.40625 30.96875,22.40625 C33.0937606,22.40625 34.5963498,21.6875072 35.4765625,20.25 C36.3567752,18.8124928 36.796875,16.7708466 36.796875,14.125 L36.796875,5.671875 C36.796875,4.43228547 36.7213549,3.51302383 36.5703125,2.9140625 C36.4192701,2.31510117 36.1302105,1.88020969 35.703125,1.609375 C35.2760395,1.33854031 34.6041713,1.15625047 33.6875,1.0625 L33.6875,0.421875 C34.4895873,0.484375312 35.6406175,0.515625 37.140625,0.515625 C38.3281309,0.515625 39.255205,0.484375312 39.921875,0.421875 L39.921875,1.0625 Z M43.125,14.65625 C43.2604173,17.0416786 43.7890579,18.9765551 44.7109375,20.4609375 C45.6328171,21.9453199 47.0468655,22.6875 48.953125,22.6875 C49.7031288,22.6875 50.3776012,22.5546888 50.9765625,22.2890625 C51.5755238,22.0234362 52.0494774,21.6197944 52.3984375,21.078125 C52.7473976,20.5364556 52.921875,19.8802122 52.921875,19.109375 C52.921875,18.2760375 52.7265645,17.5286491 52.3359375,16.8671875 C51.9453105,16.2057259 51.4192741,15.6015652 50.7578125,15.0546875 C50.0963509,14.5078098 49.2135472,13.8750036 48.109375,13.15625 C46.8177019,12.3229125 45.7942746,11.5989614 45.0390625,10.984375 C44.2838504,10.3697886 43.6588566,9.64062922 43.1640625,8.796875 C42.6692684,7.95312078 42.421875,6.97396391 42.421875,5.859375 C42.421875,4.56770187 42.7499967,3.48177523 43.40625,2.6015625 C44.0625033,1.72134977 44.9322863,1.06771047 46.015625,0.640625 C47.0989638,0.213539531 48.2916602,0 49.59375,0 C50.3645872,0 51.0338513,0.0572910938 51.6015625,0.171875 C52.1692737,0.286458906 52.6432273,0.429686641 53.0234375,0.6015625 C53.4036477,0.773438359 53.8177061,0.989582031 54.265625,1.25 C54.7760442,1.55208484 55.1354156,1.703125 55.34375,1.703125 C55.5416677,1.703125 55.6927078,1.59114695 55.796875,1.3671875 C55.9010422,1.14322805 55.9843747,0.786460781 56.046875,0.296875 L56.78125,0.296875 C56.6770828,1.72396547 56.625,4.15623281 56.625,7.59375 L55.890625,7.59375 C55.817708,6.43749422 55.559898,5.33854687 55.1171875,4.296875 C54.674477,3.25520313 54.0546915,2.40885742 53.2578125,1.7578125 C52.4609335,1.10676758 51.526047,0.78125 50.453125,0.78125 C49.7760383,0.78125 49.1692735,0.911457031 48.6328125,1.171875 C48.0963515,1.43229297 47.679689,1.80989336 47.3828125,2.3046875 C47.085936,2.79948164 46.9375,3.37499672 46.9375,4.03125 C46.9375,5.09375531 47.2552052,5.96353828 47.890625,6.640625 C48.5260448,7.31771172 49.3541616,8.0026007 50.375,8.6953125 C51.3958384,9.3880243 52.0833316,9.85416547 52.4375,10.09375 C53.6875062,10.9270875 54.6770797,11.6510386 55.40625,12.265625 C56.1354203,12.8802114 56.7291644,13.5989542 57.1875,14.421875 C57.6458356,15.2447958 57.875,16.1979113 57.875,17.28125 C57.875,18.6458402 57.5208369,19.7968703 56.8125,20.734375 C56.1041631,21.6718797 55.1510477,22.3723935 53.953125,22.8359375 C52.7552023,23.2994815 51.4166741,23.53125 49.9375,23.53125 C48.7395773,23.53125 47.7473998,23.4244802 46.9609375,23.2109375 C46.1744752,22.9973948 45.44792,22.7083352 44.78125,22.34375 C44.3229144,22.0416652 43.963543,21.890625 43.703125,21.890625 C43.5052073,21.890625 43.3541672,22.002603 43.25,22.2265625 C43.1458328,22.450522 43.0625003,22.8072892 43,23.296875 L42.265625,23.296875 C42.3489587,21.963535 42.390625,19.0833555 42.390625,14.65625 L43.125,14.65625 Z M60.109375,8.296875 C60.182292,7.58853812 60.21875,6.77604625 60.21875,5.859375 C60.21875,4.40103438 60.1406258,2.5885525 59.984375,0.421875 C61.9323014,0.484375312 65.2291434,0.515625 69.875,0.515625 C74.5208566,0.515625 77.807282,0.484375312 79.734375,0.421875 C79.5781242,2.5885525 79.5,4.40103438 79.5,5.859375 C79.5,6.77604625 79.536458,7.58853812 79.609375,8.296875 L78.875,8.296875 C78.5208316,6.51561609 78.0885442,5.10677602 77.578125,4.0703125 C77.0677058,3.03384898 76.4557327,2.28906477 75.7421875,1.8359375 C75.0286423,1.38281023 74.1614634,1.15625 73.140625,1.15625 L72.40625,1.15625 L72.40625,19.4375 C72.40625,20.3229211 72.4973949,20.968748 72.6796875,21.375 C72.8619801,21.781252 73.1848935,22.0572909 73.6484375,22.203125 C74.1119815,22.3489591 74.8385367,22.4270833 75.828125,22.4375 L75.828125,23.078125 C73.1406116,23.0156247 71.1145902,22.984375 69.75,22.984375 C68.4062433,22.984375 66.4531378,23.0156247 63.890625,23.078125 L63.890625,22.4375 C64.89063,22.4270833 65.6223935,22.3489591 66.0859375,22.203125 C66.5494815,22.0572909 66.8697908,21.781252 67.046875,21.375 C67.2239592,20.968748 67.3125,20.3229211 67.3125,19.4375 L67.3125,1.15625 L66.609375,1.15625 C65.5781198,1.15625 64.7057327,1.38020609 63.9921875,1.828125 C63.2786423,2.27604391 62.6666692,3.01822398 62.15625,4.0546875 C61.6458308,5.09115102 61.2083352,6.50519938 60.84375,8.296875 L60.109375,8.296875 Z M100.125,20.390625 C100.406251,21.0989619 100.723957,21.6119776 101.078125,21.9296875 C101.432293,22.2473974 101.786457,22.4166666 102.140625,22.4375 L102.140625,23.078125 C100.859369,23.0156247 99.2395931,22.984375 97.28125,22.984375 C95.0937391,22.984375 93.4739636,23.0156247 92.421875,23.078125 L92.421875,22.4375 C93.2239623,22.4062498 93.7994774,22.3072925 94.1484375,22.140625 C94.4973976,21.9739575 94.671875,21.6822937 94.671875,21.265625 C94.671875,20.9427067 94.541668,20.4375034 94.28125,19.75 L92.359375,14.5 L85.390625,14.5 L84.546875,16.703125 C83.9635387,18.2031325 83.671875,19.3906206 83.671875,20.265625 C83.671875,21.0572956 83.9062477,21.6093734 84.375,21.921875 C84.8437523,22.2343766 85.5520786,22.4062498 86.5,22.4375 L86.5,23.078125 C85.0624928,23.0156247 83.7395894,22.984375 82.53125,22.984375 C81.5520784,22.984375 80.7395866,23.0156247 80.09375,23.078125 L80.09375,22.4375 C81.1562553,22.2604158 82.0729128,21.1406353 82.84375,19.078125 L90.140625,0.359375 C90.4843767,0.390625156 90.8541647,0.40625 91.25,0.40625 C91.6666687,0.40625 92.0364567,0.390625156 92.359375,0.359375 L100.125,20.390625 Z M88.953125,5.21875 L85.640625,13.859375 L92.125,13.859375 L88.953125,5.21875 Z M115.234375,0.390625 C116.671882,0.453125312 118.005202,0.484375 119.234375,0.484375 C120.213547,0.484375 121.026038,0.453125312 121.671875,0.390625 L121.671875,1.03125 C121.182289,1.23958437 120.690107,1.63280961 120.195312,2.2109375 C119.700518,2.78906539 119.16667,3.63020281 118.59375,4.734375 L114.8125,12.21875 L114.8125,19.6875 C114.8125,20.4895873 114.872395,21.0729148 114.992188,21.4375 C115.11198,21.8020852 115.333332,22.0520827 115.65625,22.1875 C115.979168,22.3229173 116.499996,22.4062498 117.21875,22.4375 L117.21875,23.078125 C116.062494,23.0156247 114.421886,22.984375 112.296875,22.984375 C110.015614,22.984375 108.35938,23.0156247 107.328125,23.078125 L107.328125,22.4375 C108.036462,22.4062498 108.554686,22.3229173 108.882812,22.1875 C109.210939,22.0520827 109.434895,21.8020852 109.554688,21.4375 C109.67448,21.0729148 109.734375,20.4895873 109.734375,19.6875 L109.734375,14.28125 L103.546875,2.859375 C102.890622,1.66145234 102.276045,1.0625 101.703125,1.0625 L101.703125,0.390625 C102.630213,0.494792187 103.885409,0.546875 105.46875,0.546875 C107.46876,0.546875 109.473948,0.494792187 111.484375,0.390625 L111.484375,1.0625 C110.734371,1.0625 110.143231,1.12760352 109.710938,1.2578125 C109.278644,1.38802148 109.0625,1.63541484 109.0625,2 C109.0625,2.21875109 109.135416,2.45833203 109.28125,2.71875 L114.15625,12.09375 L116.640625,7.109375 C117.484379,5.42186656 117.90625,4.10417141 117.90625,3.15625 C117.90625,2.43749641 117.677086,1.91146 117.21875,1.578125 C116.760414,1.24479 116.098963,1.06250016 115.234375,1.03125 L115.234375,0.390625 Z" id="LUSTAY"></path>
                    <path d="M18.174,33.63 L19.77,33.63 L19.77,43.36 L18.174,43.36 L18.174,39.062 L13.596,39.062 L13.596,43.36 L12,43.36 L12,33.63 L13.596,33.63 L13.596,37.83 L18.174,37.83 L18.174,33.63 Z M26.882,41.442 C27.348669,40.975331 27.582,40.3266708 27.582,39.496 C27.582,38.6653292 27.3556689,38.0190023 26.903,37.557 C26.4503311,37.0949977 25.9020032,36.864 25.258,36.864 C24.6139968,36.864 24.0726689,37.0949977 23.634,37.557 C23.1953311,38.0190023 22.976,38.6676625 22.976,39.503 C22.976,40.3383375 23.1906645,40.9869977 23.62,41.449 C24.0493355,41.9110023 24.5836635,42.142 25.223,42.142 C25.8623365,42.142 26.415331,41.908669 26.882,41.442 Z M25.216,43.486 C24.0959944,43.486 23.1720036,43.1196703 22.444,42.387 C21.7159964,41.6543297 21.352,40.6930059 21.352,39.503 C21.352,38.3129941 21.7276629,37.3516703 22.479,36.619 C23.2303371,35.8863297 24.1659944,35.52 25.286,35.52 C26.4060056,35.52 27.3416629,35.8863297 28.093,36.619 C28.8443371,37.3516703 29.22,38.3106607 29.22,39.496 C29.22,40.6813393 28.8350039,41.642663 28.065,42.38 C27.2949961,43.117337 26.345339,43.486 25.216,43.486 Z M34.54,36.948 L32.664,36.948 L32.664,41.218 C32.664,41.5073348 32.731666,41.7149994 32.867,41.841 C33.002334,41.9670006 33.2333317,42.03 33.56,42.03 L34.54,42.03 L34.54,43.36 L33.28,43.36 C31.7959926,43.36 31.054,42.6460071 31.054,41.218 L31.054,36.948 L30.144,36.948 L30.144,35.646 L31.054,35.646 L31.054,33.728 L32.664,33.728 L32.664,35.646 L34.54,35.646 L34.54,36.948 Z M39.258,43.486 C38.1379944,43.486 37.2280035,43.1220036 36.528,42.394 C35.8279965,41.6659964 35.478,40.700006 35.478,39.496 C35.478,38.291994 35.8326631,37.328337 36.542,36.605 C37.2513369,35.8816631 38.1683277,35.52 39.293,35.52 C40.4176723,35.52 41.3299965,35.8676632 42.03,36.563 C42.7300035,37.2583368 43.08,38.1659944 43.08,39.286 C43.08,39.556668 43.0613335,39.8086655 43.024,40.042 L37.116,40.042 C37.1533335,40.6860032 37.3703314,41.1969981 37.767,41.575 C38.1636687,41.9530019 38.6606637,42.142 39.258,42.142 C40.1260043,42.142 40.7373316,41.7826703 41.092,41.064 L42.814,41.064 C42.5806655,41.7733369 42.1560031,42.3543311 41.54,42.807 C40.9239969,43.2596689 40.1633379,43.486 39.258,43.486 Z M41.414,38.95 C41.4046666,38.3153302 41.1946687,37.8090019 40.784,37.431 C40.3733313,37.0529981 39.8740029,36.864 39.286,36.864 C38.6979971,36.864 38.2056686,37.0529981 37.809,37.431 C37.4123314,37.8090019 37.1860003,38.3153302 37.13,38.95 L41.414,38.95 Z M44.648,43.36 L44.648,33 L46.244,33 L46.244,43.36 L44.648,43.36 Z M54.938,43.472 C54.1166626,43.472 53.4213362,43.1920028 52.852,42.632 C52.2826638,42.0719972 51.998,41.3696709 51.998,40.525 C51.998,39.6803291 52.268664,38.9850027 52.81,38.439 C53.351336,37.8929973 53.9999962,37.62 54.756,37.62 L54.518,37.508 C53.8926635,36.649329 53.58,35.9143364 53.58,35.303 C53.58,34.6916636 53.8156643,34.1550023 54.287,33.693 C54.7583357,33.2309977 55.3953293,33 56.198,33 C57.0006707,33 57.6399976,33.2216644 58.116,33.665 C58.5920024,34.1083355 58.83,34.6286637 58.83,35.226 C58.83,35.496668 58.7880004,35.7346656 58.704,35.94 L57.136,35.94 C57.210667,35.7719992 57.248,35.5620013 57.248,35.31 C57.248,35.0579987 57.150001,34.834001 56.954,34.638 C56.757999,34.441999 56.5083348,34.344 56.205,34.344 C55.9016651,34.344 55.6543343,34.441999 55.463,34.638 C55.2716657,34.834001 55.176,35.097665 55.176,35.429 C55.176,35.760335 55.3533316,36.1546644 55.708,36.612 L60.818,43.36 L58.914,43.36 L57.64,41.638 C57.443999,42.1700027 57.0986691,42.6086649 56.604,42.954 C56.1093309,43.2993351 55.5540031,43.472 54.938,43.472 Z M53.86,41.68 C54.1586682,41.9973349 54.5226645,42.156 54.952,42.156 C55.3813355,42.156 55.7476652,41.9950016 56.051,41.673 C56.3543349,41.3509984 56.506,40.9613356 56.506,40.504 C56.506,40.0466644 56.3543349,39.6593349 56.051,39.342 C55.7476652,39.0246651 55.3790022,38.866 54.945,38.866 C54.5109978,38.866 54.1470015,39.0246651 53.853,39.342 C53.5589985,39.6593349 53.412,40.0489977 53.412,40.511 C53.412,40.9730023 53.5613318,41.3626651 53.86,41.68 Z M67.818,39.412 L67.818,43.36 L66.222,43.36 L66.222,33.63 L69.582,33.63 C70.6833388,33.63 71.5326637,33.9029973 72.13,34.449 C72.7273363,34.9950027 73.026,35.6879958 73.026,36.528 C73.026,37.1813366 72.8276687,37.7693307 72.431,38.292 C72.0343314,38.8146693 71.4253374,39.1553325 70.604,39.314 L73.18,43.36 L71.234,43.36 L68.798,39.412 L67.818,39.412 Z M67.818,34.876 L67.818,38.166 L69.582,38.166 C70.1886697,38.166 70.6413318,38.0213348 70.94,37.732 C71.2386682,37.4426652 71.388,37.0390026 71.388,36.521 C71.388,36.0029974 71.2386682,35.5993348 70.94,35.31 C70.6413318,35.0206652 70.1886697,34.876 69.582,34.876 L67.818,34.876 Z M78.318,43.486 C77.1979944,43.486 76.2880035,43.1220036 75.588,42.394 C74.8879965,41.6659964 74.538,40.700006 74.538,39.496 C74.538,38.291994 74.8926631,37.328337 75.602,36.605 C76.3113369,35.8816631 77.2283277,35.52 78.353,35.52 C79.4776723,35.52 80.3899965,35.8676632 81.09,36.563 C81.7900035,37.2583368 82.14,38.1659944 82.14,39.286 C82.14,39.556668 82.1213335,39.8086655 82.084,40.042 L76.176,40.042 C76.2133335,40.6860032 76.4303313,41.1969981 76.827,41.575 C77.2236686,41.9530019 77.7206637,42.142 78.318,42.142 C79.1860043,42.142 79.7973316,41.7826703 80.152,41.064 L81.874,41.064 C81.6406655,41.7733369 81.2160031,42.3543311 80.6,42.807 C79.9839969,43.2596689 79.2233379,43.486 78.318,43.486 Z M80.474,38.95 C80.4646666,38.3153302 80.2546687,37.8090019 79.844,37.431 C79.4333313,37.0529981 78.9340029,36.864 78.346,36.864 C77.7579971,36.864 77.2656686,37.0529981 76.869,37.431 C76.4723314,37.8090019 76.2460003,38.3153302 76.19,38.95 L80.474,38.95 Z M83.358,37.858 C83.358,37.2046634 83.6333306,36.6516689 84.184,36.199 C84.7346694,35.7463311 85.4579955,35.52 86.354,35.52 C87.2500045,35.52 87.961664,35.7416645 88.489,36.185 C89.016336,36.6283356 89.2986665,37.2326628 89.336,37.998 L87.698,37.998 C87.6699999,37.6153314 87.5370012,37.3166677 87.299,37.102 C87.0609988,36.8873323 86.7273355,36.78 86.298,36.78 C85.8686645,36.78 85.5326679,36.8756657 85.29,37.067 C85.0473321,37.2583343 84.926,37.5103318 84.926,37.823 C84.926,38.1356682 85.0799985,38.3806658 85.388,38.558 C85.6960015,38.7353342 86.0716645,38.8659996 86.515,38.95 C86.9583356,39.0340004 87.4016645,39.1366661 87.845,39.258 C88.2883356,39.3793339 88.6639985,39.6009984 88.972,39.923 C89.2800015,40.2450016 89.434,40.676664 89.434,41.218 C89.434,41.8900034 89.1516695,42.4359979 88.587,42.856 C88.0223305,43.2760021 87.2966711,43.486 86.41,43.486 C85.5233289,43.486 84.8046694,43.2713355 84.254,42.842 C83.7033306,42.4126645 83.4000003,41.8013373 83.344,41.008 L84.996,41.008 C85.0240001,41.3906686 85.1639987,41.6893323 85.416,41.904 C85.6680013,42.1186677 86.0109978,42.226 86.445,42.226 C86.8790022,42.226 87.2243321,42.1303343 87.481,41.939 C87.737668,41.7476657 87.866,41.4933349 87.866,41.176 C87.866,40.8586651 87.7120015,40.6113342 87.404,40.434 C87.0959985,40.2566658 86.7203356,40.1236671 86.277,40.035 C85.8336645,39.9463329 85.3903356,39.8436672 84.947,39.727 C84.5036645,39.6103327 84.1280015,39.3980015 83.82,39.09 C83.5119985,38.7819985 83.358,38.3713359 83.358,37.858 Z M96.196,41.442 C96.662669,40.975331 96.896,40.3266708 96.896,39.496 C96.896,38.6653292 96.6696689,38.0190023 96.217,37.557 C95.7643311,37.0949977 95.2160032,36.864 94.572,36.864 C93.9279968,36.864 93.3866689,37.0949977 92.948,37.557 C92.5093311,38.0190023 92.29,38.6676625 92.29,39.503 C92.29,40.3383375 92.5046645,40.9869977 92.934,41.449 C93.3633355,41.9110023 93.8976635,42.142 94.537,42.142 C95.1763365,42.142 95.729331,41.908669 96.196,41.442 Z M94.53,43.486 C93.4099944,43.486 92.4860036,43.1196703 91.758,42.387 C91.0299964,41.6543297 90.666,40.6930059 90.666,39.503 C90.666,38.3129941 91.0416629,37.3516703 91.793,36.619 C92.5443371,35.8863297 93.4799944,35.52 94.6,35.52 C95.7200056,35.52 96.6556629,35.8863297 97.407,36.619 C98.1583371,37.3516703 98.534,38.3106607 98.534,39.496 C98.534,40.6813393 98.1490039,41.642663 97.379,42.38 C96.6089961,43.117337 95.659339,43.486 94.53,43.486 Z M101.712,35.646 L101.712,36.99 C102.206669,36.0099951 102.976661,35.52 104.022,35.52 L104.022,37.172 L103.616,37.172 C102.990664,37.172 102.517002,37.3306651 102.195,37.648 C101.872998,37.9653349 101.712,38.5159961 101.712,39.3 L101.712,43.36 L100.116,43.36 L100.116,35.646 L101.712,35.646 Z M109.23,36.948 L107.354,36.948 L107.354,41.218 C107.354,41.5073348 107.421666,41.7149994 107.557,41.841 C107.692334,41.9670006 107.923332,42.03 108.25,42.03 L109.23,42.03 L109.23,43.36 L107.97,43.36 C106.485993,43.36 105.744,42.6460071 105.744,41.218 L105.744,36.948 L104.834,36.948 L104.834,35.646 L105.744,35.646 L105.744,33.728 L107.354,33.728 L107.354,35.646 L109.23,35.646 L109.23,36.948 Z" id="Hotel&amp;Resort"></path>
                </g>
            </g>
        </g>
    </g>
</svg>