<?xml version="1.0" standalone="no"?>
<!DOCTYPE svg PUBLIC "-//W3C//DTD SVG 20010904//EN"
 "http://www.w3.org/TR/2001/REC-SVG-20010904/DTD/svg10.dtd">
<svg version="1.0" xmlns="http://www.w3.org/2000/svg"
 width="4733.000000pt" height="4408.000000pt" viewBox="0 0 4733.000000 4408.000000"
 preserveAspectRatio="xMidYMid meet">
<metadata>
Created by potrace 1.16, written by Peter Selinger 2001-2019
</metadata>
<g transform="translate(0.000000,4408.000000) scale(0.100000,-0.100000)"
fill="#000000" stroke="none">
<path d="M0 22040 l0 -22040 23665 0 23665 0 0 22040 0 22040 -23665 0 -23665
0 0 -22040z m36569 14121 c6 -10 801 -1931 1767 -4267 966 -2337 1776 -4296
1800 -4354 99 -231 231 -427 402 -593 206 -198 426 -304 672 -323 l90 -7 0
-38 0 -39 -1705 0 -1705 0 0 40 0 40 88 0 c202 1 340 27 470 91 288 141 381
446 256 841 -14 42 -229 592 -479 1220 l-454 1143 -1707 0 -1708 0 -363 -1050
c-199 -577 -373 -1095 -387 -1150 -38 -157 -49 -255 -43 -389 9 -211 67 -356
192 -482 145 -145 316 -208 603 -221 l132 -6 0 -39 0 -38 -1245 0 -1245 0 0
39 0 38 101 7 c141 10 274 46 404 111 132 65 221 130 335 246 125 126 208 248
309 454 83 170 175 422 1617 4463 l1528 4282 133 0 c119 0 133 -2 142 -19z
m-7683 -72 c996 -65 2070 -341 2839 -728 l150 -76 3 -873 2 -873 -37 3 -38 3
-111 270 c-149 365 -225 513 -375 736 -198 294 -514 611 -808 808 -307 207
-652 353 -987 420 -371 74 -1019 113 -1350 80 -375 -36 -698 -128 -1033 -295
-1075 -533 -1799 -1770 -1980 -3379 -37 -326 -45 -485 -45 -865 0 -381 9 -542
45 -865 114 -1018 452 -1907 971 -2554 444 -553 1031 -924 1688 -1065 192 -42
333 -57 580 -63 678 -17 1533 106 2260 325 l125 37 0 1440 c0 1367 -1 1445
-19 1540 -58 309 -198 531 -417 663 -95 57 -263 101 -391 102 l-68 0 0 45 0
45 1490 0 1490 0 0 -45 0 -45 -74 0 c-210 0 -406 -81 -554 -228 -127 -127
-200 -270 -263 -517 -10 -39 -14 -354 -18 -1405 l-6 -1355 -90 -48 c-687 -369
-1700 -653 -2675 -752 -536 -54 -1128 -44 -1605 26 -1435 212 -2585 954 -3270
2109 -95 160 -233 444 -304 624 -184 468 -293 947 -343 1506 -16 189 -16 771
0 960 96 1071 431 1944 1029 2679 116 142 452 476 588 585 762 606 1671 947
2735 1025 169 12 683 13 866 0z m-19154 -4102 c1087 -2341 1845 -3963 1849
-3955 4 7 701 1786 1549 3953 848 2167 1547 3948 1552 3958 8 16 67 17 1028
17 l1020 0 0 -45 0 -45 -83 0 c-165 0 -335 -65 -452 -173 -174 -159 -268 -379
-284 -667 -12 -205 26 -7467 39 -7567 44 -337 231 -627 487 -757 85 -42 213
-75 328 -82 l105 -7 0 -38 0 -39 -1525 0 -1525 0 0 39 0 38 93 7 c173 12 303
58 426 151 161 123 284 355 320 606 7 47 22 1369 41 3659 16 1972 31 3721 32
3887 2 166 0 299 -3 295 -3 -4 -113 -279 -245 -612 -131 -333 -921 -2283
-1755 -4335 l-1516 -3730 -109 -3 -109 -2 -1582 3262 c-1050 2167 -1700 3520
-1935 4029 l-353 767 -3 -137 c-4 -162 36 -6382 42 -6656 3 -111 11 -227 21
-280 74 -410 327 -715 697 -838 114 -38 225 -57 381 -64 l137 -6 0 -39 0 -38
-1230 0 -1230 0 0 40 0 40 49 0 c214 0 413 77 562 218 163 153 264 374 299
651 7 57 10 1303 10 3826 0 3335 -1 3751 -15 3831 -22 126 -49 210 -100 311
-126 252 -341 395 -612 410 l-103 6 0 43 0 44 930 -2 931 -3 1841 -3968z
m13448 3048 c0 -893 -1 -925 -18 -925 -15 0 -24 17 -41 78 -97 333 -308 681
-574 945 -339 335 -765 541 -1216 586 -65 7 -483 11 -1127 11 l-1024 0 0
-2020 0 -2020 860 0 c540 0 897 4 958 11 484 53 893 268 1102 580 54 82 109
203 125 277 5 25 12 32 31 32 l24 0 0 -1080 0 -1080 -23 0 c-21 0 -26 10 -47
83 -34 119 -128 296 -211 399 -241 300 -629 491 -1088 538 -63 6 -422 10 -917
10 l-814 0 0 -2345 0 -2346 1148 4 c1273 4 1181 -1 1447 72 512 139 1009 491
1367 967 85 113 146 211 259 417 55 99 92 157 104 160 15 3 17 -2 11 -30 -29
-143 -215 -1280 -292 -1781 l-6 -38 -3044 0 -3044 0 0 39 0 38 83 7 c175 15
301 63 418 160 148 122 243 293 306 551 16 65 18 319 21 3860 2 2648 -1 3815
-8 3872 -14 107 -41 213 -80 310 -122 303 -377 492 -667 493 l-73 0 0 45 0 45
3025 0 3025 0 0 -925z m-13210 -9809 c733 -84 1471 -273 2084 -535 61 -27 131
-58 154 -70 l42 -21 0 -925 0 -925 -47 0 -48 1 -30 67 c-56 128 -382 827 -428
917 -275 545 -868 1016 -1481 1176 -264 68 -596 109 -890 109 -300 0 -525 -27
-792 -95 -301 -77 -602 -220 -829 -394 -83 -63 -236 -212 -305 -296 -180 -219
-315 -509 -369 -789 -29 -147 -45 -334 -37 -436 17 -240 136 -467 376 -714
265 -273 584 -493 1057 -730 454 -227 903 -394 1559 -580 474 -135 744 -234
1079 -395 315 -153 589 -321 850 -523 161 -124 458 -421 567 -568 318 -426
453 -823 434 -1280 -17 -447 -141 -842 -373 -1195 -513 -778 -1482 -1246
-2748 -1326 -206 -13 -732 -7 -985 11 -938 66 -1734 214 -2422 449 -178 62
-414 156 -423 171 -2 4 -9 306 -14 671 -6 365 -13 782 -16 927 l-6 263 46 -3
45 -3 128 -260 c160 -327 196 -394 287 -530 223 -335 544 -651 901 -888 631
-419 1348 -607 2219 -584 577 16 1051 133 1445 359 152 88 249 159 373 278
307 293 460 611 498 1033 14 155 1 277 -42 412 -215 673 -1156 1347 -2514
1800 -137 46 -369 118 -515 159 -448 127 -743 235 -1065 391 -429 207 -783
448 -1073 730 -299 291 -493 583 -597 900 -64 195 -79 295 -78 520 2 601 193
1148 559 1605 249 310 624 592 1046 786 369 169 843 291 1298 333 63 6 133 13
155 15 111 11 789 -3 925 -18z m12510 -201 l0 -45 -87 0 c-172 -1 -296 -43
-392 -135 -118 -112 -154 -260 -115 -466 19 -99 70 -241 130 -359 80 -159
2089 -3731 2098 -3732 5 0 480 762 1054 1694 1092 1769 1192 1940 1260 2153
100 313 80 522 -64 675 -109 115 -225 159 -447 167 -133 5 -137 6 -143 28 -3
13 -4 32 -2 42 3 17 85 18 2336 21 l2332 2 0 -45 0 -45 -80 0 c-202 0 -385
-74 -528 -213 -141 -137 -220 -286 -275 -522 l-22 -90 -2 -4138 -3 -4138 1297
4 c1414 4 1318 0 1547 61 415 110 818 367 1111 708 190 221 279 369 454 754
63 137 117 252 120 257 11 11 146 -38 149 -54 1 -8 -72 -437 -163 -954 -91
-517 -167 -955 -170 -972 l-6 -33 -3274 0 -3275 0 0 38 0 39 98 7 c208 14 361
77 494 204 156 149 237 310 286 566 16 85 17 329 17 3856 0 3559 -1 3770 -18
3857 -61 318 -214 552 -441 673 l-63 34 -66 -28 c-297 -126 -620 -418 -879
-796 -36 -52 -611 -963 -1277 -2023 l-1211 -1929 3 -1811 c3 -1997 -1 -1849
65 -2042 47 -135 105 -228 207 -330 50 -49 116 -105 147 -124 111 -65 290
-111 429 -111 l49 0 0 -40 0 -40 -1565 0 -1565 0 0 38 0 39 108 6 c140 9 217
28 328 82 161 78 308 239 383 420 47 112 78 246 90 382 7 75 11 650 11 1562
l0 1444 -1287 2251 c-707 1238 -1317 2296 -1354 2351 -133 196 -302 385 -454
507 -127 102 -199 108 -1253 108 l-812 0 3 -4162 2 -4163 22 -87 c52 -206 126
-344 258 -474 78 -78 106 -99 186 -137 113 -54 194 -75 323 -84 l96 -6 0 -39
0 -38 -1555 0 -1555 0 0 38 0 39 98 6 c406 26 674 276 776 727 l21 95 0 4140
0 4140 -805 3 c-505 2 -849 -1 -923 -8 -588 -52 -1146 -406 -1499 -950 -68
-104 -103 -173 -279 -550 -134 -285 -139 -295 -169 -298 -26 -3 -30 0 -30 21
0 13 38 463 85 999 47 537 85 986 85 997 l0 21 4775 0 4775 0 0 -45z m18518
-883 l2 -923 -27 3 c-25 3 -30 13 -69 123 -244 689 -848 1241 -1559 1423 -265
68 -210 66 -1487 69 l-1158 4 0 -2021 0 -2020 935 0 c981 0 1034 2 1255 46
528 105 926 396 1052 769 25 74 29 80 55 80 l28 0 3 -1078 2 -1078 -31 3 c-31
3 -33 7 -63 98 -60 183 -154 328 -308 476 -237 227 -540 365 -950 431 -89 14
-228 17 -1040 20 l-938 4 0 -2345 0 -2346 1179 0 c1004 0 1198 2 1298 15 561
73 1089 337 1522 759 221 217 357 395 531 698 71 124 89 147 109 148 19 0 22
-4 18 -22 -22 -88 -255 -1407 -303 -1715 l-18 -113 -3273 0 -3273 0 0 40 0 40
53 0 c134 1 300 44 406 107 202 120 334 320 408 618 16 66 17 306 21 3850 2
2735 0 3802 -8 3860 -37 262 -127 453 -287 606 -94 90 -157 127 -283 170 -75
25 -118 33 -202 37 l-108 5 0 43 0 44 3253 -2 3252 -3 3 -923z m-127 -10470
c42 -12 110 -37 150 -58 80 -40 189 -112 189 -125 0 -4 -19 -39 -42 -78 l-42
-69 -50 45 c-97 87 -243 141 -411 150 -194 11 -328 -27 -415 -116 -64 -64 -90
-129 -90 -220 0 -82 16 -127 63 -179 58 -63 149 -102 352 -151 283 -69 386
-99 471 -141 108 -53 175 -114 216 -198 32 -65 33 -69 33 -202 0 -134 0 -136
-34 -205 -41 -84 -113 -157 -197 -202 -207 -110 -581 -116 -846 -12 -108 42
-308 166 -308 191 0 5 19 40 42 78 l42 67 65 -53 c79 -66 218 -135 326 -165
112 -30 344 -38 447 -15 137 31 242 110 268 204 18 66 12 162 -14 217 -55 120
-162 171 -551 265 -414 101 -540 197 -561 430 -18 190 70 370 225 465 62 37
180 80 263 94 87 16 321 6 409 -17z m-33651 -789 c184 -444 356 -858 382 -920
l47 -113 -97 0 -97 0 -117 283 -117 282 -414 3 -415 2 -77 -187 c-42 -104 -95
-232 -117 -285 l-40 -98 -100 0 c-54 0 -97 4 -94 8 3 5 168 397 366 873 199
475 371 885 382 912 l20 47 77 0 76 0 335 -807z m3625 779 c178 -66 316 -224
365 -418 72 -280 -77 -578 -342 -687 -50 -21 -73 -22 -408 -27 l-355 -5 -3
-337 -2 -338 -90 0 -90 0 0 921 0 920 433 -3 c420 -3 434 -4 492 -26z m3763
-800 c189 -455 361 -869 382 -919 l39 -93 -97 0 -97 0 -84 203 c-47 111 -100
239 -119 285 l-34 82 -415 -2 -414 -3 -114 -279 c-63 -153 -116 -281 -118
-283 -3 -2 -47 -2 -99 -1 l-94 3 383 915 c210 503 383 916 383 918 0 1 35 2
78 2 l77 0 343 -828z m3575 813 c37 -8 95 -29 130 -47 80 -41 192 -154 235
-235 167 -317 24 -722 -290 -823 -21 -6 -38 -14 -38 -17 0 -3 96 -156 213
-341 118 -186 217 -343 221 -349 6 -10 -16 -13 -96 -13 l-103 1 -215 339 -215
340 -272 0 -273 0 0 -340 0 -340 -90 0 -90 0 0 920 0 920 408 0 c315 0 422 -4
475 -15z m4127 -65 l0 -80 -327 -2 -328 -3 -3 -837 -2 -838 -90 0 -90 0 -2
838 -3 837 -327 3 -328 2 0 80 0 80 750 0 750 0 0 -80z m2819 -540 c195 -341
357 -623 361 -625 5 -3 169 276 366 620 l359 625 92 0 93 0 0 -920 0 -920 -90
0 -90 0 0 745 c0 410 -3 745 -7 745 -5 -1 -156 -260 -337 -576 l-329 -575 -54
3 -55 3 -331 578 -332 577 -3 -750 -2 -750 -90 0 -90 0 0 920 0 920 93 0 93 0
353 -620z m4951 540 l0 -80 -512 -2 -513 -3 0 -330 0 -330 448 -3 447 -2 0
-75 0 -75 -450 0 -450 0 0 -350 0 -350 525 0 525 0 0 -80 0 -80 -615 0 -615 0
0 920 0 920 605 0 605 0 0 -80z m3120 -681 l605 -761 3 756 2 756 90 0 90 0 0
-915 0 -915 -78 0 -79 0 -594 745 -594 744 -3 -744 -2 -745 -90 0 -90 0 0 920
0 920 68 0 67 0 605 -761z m4570 681 l0 -80 -327 -2 -328 -3 -3 -837 -2 -838
-90 0 -90 0 0 840 0 840 -325 0 -325 0 0 80 0 80 745 0 745 0 0 -80z m-4652
-3900 l8242 0 0 -125 0 -125 -8243 0 -8242 0 -610 -610 c-335 -335 -614 -610
-620 -610 -6 0 -285 275 -620 610 l-610 610 -8242 0 -8243 0 0 125 0 125 8243
0 8242 0 615 615 615 615 615 -615 615 -615 8243 0z"/>
<path d="M35907 34408 c-19 -57 -357 -1036 -751 -2177 -394 -1140 -716 -2075
-716 -2077 0 -2 727 -4 1615 -4 1092 0 1615 3 1615 10 0 10 -1718 4341 -1725
4348 -1 2 -19 -43 -38 -100z"/>
<path d="M6622 13027 c-100 -243 -182 -445 -182 -449 0 -5 164 -8 365 -8 201
0 365 3 365 6 0 6 -349 863 -358 881 -4 6 -89 -187 -190 -430z"/>
<path d="M10107 13523 c-4 -3 -7 -193 -7 -420 l0 -414 338 3 c322 3 339 4 384
25 150 69 252 283 219 461 -23 124 -83 224 -173 285 -88 60 -134 67 -463 67
-161 0 -295 -3 -298 -7z"/>
<path d="M14002 13027 c-100 -243 -182 -445 -182 -449 0 -9 730 -11 730 -3 0
6 -349 865 -359 882 -4 7 -89 -186 -189 -430z"/>
<path d="M17487 13524 c-4 -4 -7 -193 -7 -421 l0 -413 330 0 c308 0 333 1 384
21 175 65 283 301 231 502 -34 132 -110 227 -223 280 l-67 32 -320 3 c-176 2
-324 0 -328 -4z"/>
</g>
</svg>
